<svg width="24" height="22" viewBox="0 0 24 22" fill="none" xmlns="http://www.w3.org/2000/svg">
<path d="M2.4 2.44444H6L8.4 0H15.6L18 2.44444H21.6C22.2365 2.44444 22.847 2.70198 23.2971 3.16041C23.7471 3.61883 24 4.24058 24 4.88889V19.5556C24 20.2039 23.7471 20.8256 23.2971 21.284C22.847 21.7425 22.2365 22 21.6 22H2.4C1.76348 22 1.15303 21.7425 0.702944 21.284C0.252856 20.8256 0 20.2039 0 19.5556V4.88889C0 4.24058 0.252856 3.61883 0.702944 3.16041C1.15303 2.70198 1.76348 2.44444 2.4 2.44444ZM12 6.11111C10.4087 6.11111 8.88258 6.75496 7.75736 7.90101C6.63214 9.04707 6 10.6015 6 12.2222C6 13.843 6.63214 15.3974 7.75736 16.5434C8.88258 17.6895 10.4087 18.3333 12 18.3333C13.5913 18.3333 15.1174 17.6895 16.2426 16.5434C17.3679 15.3974 18 13.843 18 12.2222C18 10.6015 17.3679 9.04707 16.2426 7.90101C15.1174 6.75496 13.5913 6.11111 12 6.11111ZM12 8.55556C12.9548 8.55556 13.8705 8.94186 14.5456 9.6295C15.2207 10.3171 15.6 11.2498 15.6 12.2222C15.6 13.1947 15.2207 14.1273 14.5456 14.8149C13.8705 15.5026 12.9548 15.8889 12 15.8889C11.0452 15.8889 10.1295 15.5026 9.45442 14.8149C8.77928 14.1273 8.4 13.1947 8.4 12.2222C8.4 11.2498 8.77928 10.3171 9.45442 9.6295C10.1295 8.94186 11.0452 8.55556 12 8.55556Z" fill="black" fill-opacity="0.5"/>
</svg>
