<svg width="44" height="34" viewBox="0 0 44 34" fill="none" xmlns="http://www.w3.org/2000/svg">
<path d="M18.5283 2.42188L16.9531 0C6.05469 7.32569 0 16.2266 0 23.5522C0 30.6357 5.208 33.9663 9.62744 33.9663C15.1978 33.9663 19.1328 29.2427 19.1328 24.2788C19.1328 20.1016 16.4688 16.5288 12.896 15.1958C11.8672 14.8316 10.8984 14.5293 10.8984 12.7739C10.8984 10.5342 12.5337 7.20556 18.5283 2.42188ZM42.5649 2.42188L40.9898 0C30.2114 7.32569 24.0366 16.2266 24.0366 23.5522C24.0366 30.6357 29.3648 33.9663 33.7842 33.9663C39.4146 33.9663 43.4116 29.2427 43.4116 24.2788C43.4116 20.1016 40.6875 16.5288 36.9927 15.1958C35.9639 14.8316 35.0552 14.5293 35.0552 12.7739C35.0552 10.5342 36.7505 7.20363 42.563 2.41994L42.5649 2.42188Z" fill="#2FC6BD" fill-opacity="0.24"/>
</svg>
