<svg width="23" height="19" viewBox="0 0 23 19" fill="none" xmlns="http://www.w3.org/2000/svg">
<path d="M23 2.23529C22.1534 2.62647 21.2409 2.88353 20.2954 3.00647C21.2629 2.41412 22.0105 1.47529 22.3623 0.346471C21.4498 0.905294 20.4383 1.29647 19.3719 1.52C18.5033 0.558824 17.283 0 15.8977 0C13.3141 0 11.2032 2.14588 11.2032 4.79471C11.2032 5.17471 11.2471 5.54353 11.3241 5.89C7.41013 5.68882 3.92495 3.77765 1.60516 0.882941C1.19837 1.58706 0.967495 2.41412 0.967495 3.28588C0.967495 4.95118 1.79207 6.42647 3.0674 7.26471C2.28681 7.26471 1.56119 7.04118 0.923518 6.70588C0.923518 6.70588 0.923518 6.70588 0.923518 6.73941C0.923518 9.06412 2.55067 11.0088 4.70555 11.4447C4.30975 11.5565 3.89197 11.6124 3.46319 11.6124C3.16635 11.6124 2.8695 11.5788 2.58365 11.5229C3.17734 13.4118 4.90344 14.82 6.98136 14.8535C5.3762 16.15 3.34226 16.91 1.12142 16.91C0.74761 16.91 0.373805 16.8876 0 16.8429C2.08891 18.2065 4.57361 19 7.23423 19C15.8977 19 20.6582 11.6906 20.6582 5.35353C20.6582 5.14118 20.6582 4.94 20.6472 4.72765C21.5707 4.05706 22.3623 3.20765 23 2.23529Z" fill="white"/>
</svg>
