<svg width="12" height="13" viewBox="0 0 12 13" fill="none" xmlns="http://www.w3.org/2000/svg">
<path d="M2.41333 6.19333C3.37333 8.08 4.92 9.62667 6.80667 10.5867L8.27333 9.12C8.46 8.93333 8.72 8.88 8.95333 8.95333C9.7 9.2 10.5 9.33333 11.3333 9.33333C11.7 9.33333 12 9.63333 12 10V12.3333C12 12.7 11.7 13 11.3333 13C5.07333 13 0 7.92667 0 1.66667C0 1.3 0.3 1 0.666667 1H3C3.36667 1 3.66667 1.3 3.66667 1.66667C3.66667 2.5 3.8 3.3 4.04667 4.04667C4.12 4.28 4.06667 4.54 3.88 4.72667L2.41333 6.19333ZM9.33333 1V0L7.83333 1.5L9.33333 3V2C10.2533 2 11 2.74667 11 3.66667C11 3.93333 10.94 4.18667 10.8267 4.41333L11.5533 5.14C11.8333 4.72 12 4.21333 12 3.66667C12 2.19333 10.8067 1 9.33333 1ZM9.33333 5.33333C8.41333 5.33333 7.66667 4.58667 7.66667 3.66667C7.66667 3.4 7.72667 3.14667 7.84 2.92L7.11333 2.19333C6.83333 2.61333 6.66667 3.12 6.66667 3.66667C6.66667 5.14 7.86 6.33333 9.33333 6.33333V7.33333L10.8333 5.83333L9.33333 4.33333V5.33333Z" fill="#FFFEFE"/>
</svg>
