<svg width="22" height="24" viewBox="0 0 22 24" fill="none" xmlns="http://www.w3.org/2000/svg">
<path d="M18.8335 8.4C20.816 10.3636 20.816 13.4182 18.8335 15.4909L19.9349 16.5818C22.6884 14.0727 22.6884 9.92727 19.9349 7.30909L18.8335 8.4ZM17.622 9.6L16.5206 10.6909C17.0713 11.4545 17.0713 12.4364 16.5206 13.2L17.622 14.2909C18.9437 12.9818 18.9437 11.0182 17.622 9.6ZM13.2165 0H2.20275C1.61855 0 1.05827 0.22987 0.645171 0.63904C0.232075 1.04821 0 1.60316 0 2.18182V21.8182C0 22.3968 0.232075 22.9518 0.645171 23.361C1.05827 23.7701 1.61855 24 2.20275 24H13.2165C13.8007 24 14.361 23.7701 14.7741 23.361C15.1872 22.9518 15.4193 22.3968 15.4193 21.8182V2.18182C15.4193 1.60316 15.1872 1.04821 14.7741 0.63904C14.361 0.22987 13.8007 0 13.2165 0ZM13.2165 20.7273H2.20275V3.27273H13.2165V20.7273Z" fill="black" fill-opacity="0.5"/>
</svg>
